<svg xmlns="http://www.w3.org/2000/svg" width="180" height="180" viewBox="0 0 180 180" fill="none">
  <g transform="translate(5, 44)" stroke="#FFFFFF" stroke-width="3" stroke-linecap="round">
    <!-- squares (nodes) -->
    <rect x="10" y="7" width="6" height="6" fill="#FFFFFF" stroke="none" />
    <rect x="24" y="19" width="6" height="6" fill="#FFFFFF" stroke="none" />
    <rect x="38" y="31" width="6" height="6" fill="#FFFFFF" stroke="none" />
    <rect x="52" y="43" width="6" height="6" fill="#FFFFFF" stroke="none" />
    <rect x="38" y="55" width="6" height="6" fill="#FFFFFF" stroke="none" />
    <rect x="24" y="67" width="6" height="6" fill="#FFFFFF" stroke="none" />
    <rect x="10" y="79" width="6" height="6" fill="#FFFFFF" stroke="none" />

    <!-- circuit paths converging -->
    <path d="M 16 10 H 36 C 80 10, 120 46, 170 46" />
    <path d="M 30 22 H 50 C 90 22, 125 46, 170 46" />
    <path d="M 44 34 H 64 C 100 34, 130 46, 170 46" />
    <path d="M 58 46 H 170" />
    <path d="M 44 58 H 64 C 100 58, 130 46, 170 46" />
    <path d="M 30 70 H 50 C 90 70, 125 46, 170 46" />
    <path d="M 16 82 H 36 C 80 82, 120 46, 170 46" />
  </g>
</svg>